<mxfile host="app.diagrams.net" agent="Mozilla/5.0 (Windows NT 10.0; Win64; x64) AppleWebKit/537.36 (KHTML, like Gecko) Chrome/130.0.0.0 Safari/537.36" version="25.0.3">
  <diagram name="Page-1" id="JGVOcQSQ9KRNcDd6jHbq">
    <mxGraphModel grid="1" page="1" gridSize="10" guides="1" tooltips="1" connect="1" arrows="1" fold="1" pageScale="1" pageWidth="827" pageHeight="1169" math="0" shadow="0">
      <root>
        <mxCell id="0" />
        <mxCell id="1" parent="0" />
        <mxCell id="noxPn5tBLX090fMcb3UR-12" style="edgeStyle=orthogonalEdgeStyle;rounded=0;orthogonalLoop=1;jettySize=auto;html=1;exitX=0.5;exitY=1;exitDx=0;exitDy=0;entryX=0.5;entryY=0;entryDx=0;entryDy=0;" edge="1" parent="1" source="noxPn5tBLX090fMcb3UR-1" target="noxPn5tBLX090fMcb3UR-2">
          <mxGeometry relative="1" as="geometry" />
        </mxCell>
        <mxCell id="noxPn5tBLX090fMcb3UR-1" value="" style="ellipse;whiteSpace=wrap;html=1;" vertex="1" parent="1">
          <mxGeometry x="340" y="90" width="120" height="80" as="geometry" />
        </mxCell>
        <mxCell id="noxPn5tBLX090fMcb3UR-2" value="" style="shape=parallelogram;perimeter=parallelogramPerimeter;whiteSpace=wrap;html=1;fixedSize=1;" vertex="1" parent="1">
          <mxGeometry x="340" y="240" width="120" height="60" as="geometry" />
        </mxCell>
        <mxCell id="noxPn5tBLX090fMcb3UR-19" value="" style="edgeStyle=orthogonalEdgeStyle;rounded=0;orthogonalLoop=1;jettySize=auto;html=1;" edge="1" parent="1" source="noxPn5tBLX090fMcb3UR-3" target="noxPn5tBLX090fMcb3UR-18">
          <mxGeometry relative="1" as="geometry" />
        </mxCell>
        <mxCell id="noxPn5tBLX090fMcb3UR-3" value="" style="rhombus;whiteSpace=wrap;html=1;" vertex="1" parent="1">
          <mxGeometry x="315" y="360" width="170" height="80" as="geometry" />
        </mxCell>
        <mxCell id="noxPn5tBLX090fMcb3UR-4" value="" style="ellipse;whiteSpace=wrap;html=1;" vertex="1" parent="1">
          <mxGeometry x="560" y="490" width="120" height="80" as="geometry" />
        </mxCell>
        <mxCell id="noxPn5tBLX090fMcb3UR-22" value="" style="edgeStyle=orthogonalEdgeStyle;rounded=0;orthogonalLoop=1;jettySize=auto;html=1;" edge="1" parent="1" source="noxPn5tBLX090fMcb3UR-5" target="noxPn5tBLX090fMcb3UR-4">
          <mxGeometry relative="1" as="geometry" />
        </mxCell>
        <mxCell id="noxPn5tBLX090fMcb3UR-5" value="" style="rounded=1;whiteSpace=wrap;html=1;" vertex="1" parent="1">
          <mxGeometry x="340" y="500" width="120" height="60" as="geometry" />
        </mxCell>
        <mxCell id="noxPn5tBLX090fMcb3UR-6" value="start" style="text;html=1;align=center;verticalAlign=middle;whiteSpace=wrap;rounded=0;" vertex="1" parent="1">
          <mxGeometry x="370" y="115" width="60" height="30" as="geometry" />
        </mxCell>
        <mxCell id="noxPn5tBLX090fMcb3UR-13" value="" style="edgeStyle=orthogonalEdgeStyle;rounded=0;orthogonalLoop=1;jettySize=auto;html=1;" edge="1" parent="1" source="noxPn5tBLX090fMcb3UR-7" target="noxPn5tBLX090fMcb3UR-9">
          <mxGeometry relative="1" as="geometry" />
        </mxCell>
        <mxCell id="noxPn5tBLX090fMcb3UR-7" value="nhập n" style="text;html=1;align=center;verticalAlign=middle;whiteSpace=wrap;rounded=0;" vertex="1" parent="1">
          <mxGeometry x="370" y="255" width="60" height="30" as="geometry" />
        </mxCell>
        <mxCell id="noxPn5tBLX090fMcb3UR-14" value="" style="edgeStyle=orthogonalEdgeStyle;rounded=0;orthogonalLoop=1;jettySize=auto;html=1;" edge="1" parent="1" source="noxPn5tBLX090fMcb3UR-9" target="noxPn5tBLX090fMcb3UR-5">
          <mxGeometry relative="1" as="geometry" />
        </mxCell>
        <mxCell id="noxPn5tBLX090fMcb3UR-9" value="&lt;font style=&quot;vertical-align: inherit;&quot;&gt;&lt;font style=&quot;vertical-align: inherit;&quot;&gt;&lt;font style=&quot;vertical-align: inherit;&quot;&gt;&lt;font style=&quot;vertical-align: inherit;&quot;&gt;n &amp;gt; 0 and n mod 2=0&lt;/font&gt;&lt;/font&gt;&lt;/font&gt;&lt;/font&gt;" style="text;html=1;align=center;verticalAlign=middle;whiteSpace=wrap;rounded=0;" vertex="1" parent="1">
          <mxGeometry x="370" y="385" width="60" height="30" as="geometry" />
        </mxCell>
        <mxCell id="noxPn5tBLX090fMcb3UR-15" value="&lt;font style=&quot;vertical-align: inherit;&quot;&gt;&lt;font style=&quot;vertical-align: inherit;&quot;&gt;false&lt;/font&gt;&lt;/font&gt;" style="text;html=1;align=center;verticalAlign=middle;whiteSpace=wrap;rounded=0;" vertex="1" parent="1">
          <mxGeometry x="480" y="370" width="60" height="30" as="geometry" />
        </mxCell>
        <mxCell id="noxPn5tBLX090fMcb3UR-16" value="&lt;font style=&quot;vertical-align: inherit;&quot;&gt;&lt;font style=&quot;vertical-align: inherit;&quot;&gt;true&lt;/font&gt;&lt;/font&gt;" style="text;html=1;align=center;verticalAlign=middle;whiteSpace=wrap;rounded=0;rotation=90;" vertex="1" parent="1">
          <mxGeometry x="400" y="450" width="60" height="30" as="geometry" />
        </mxCell>
        <mxCell id="noxPn5tBLX090fMcb3UR-17" value="&lt;font style=&quot;vertical-align: inherit;&quot;&gt;&lt;font style=&quot;vertical-align: inherit;&quot;&gt;n là số chẵn&lt;/font&gt;&lt;/font&gt;" style="text;html=1;align=center;verticalAlign=middle;whiteSpace=wrap;rounded=0;" vertex="1" parent="1">
          <mxGeometry x="360" y="515" width="70" height="30" as="geometry" />
        </mxCell>
        <mxCell id="noxPn5tBLX090fMcb3UR-21" value="" style="edgeStyle=orthogonalEdgeStyle;rounded=0;orthogonalLoop=1;jettySize=auto;html=1;" edge="1" parent="1" source="noxPn5tBLX090fMcb3UR-18" target="noxPn5tBLX090fMcb3UR-4">
          <mxGeometry relative="1" as="geometry" />
        </mxCell>
        <mxCell id="noxPn5tBLX090fMcb3UR-18" value="" style="rounded=1;whiteSpace=wrap;html=1;" vertex="1" parent="1">
          <mxGeometry x="560" y="370" width="120" height="60" as="geometry" />
        </mxCell>
        <mxCell id="noxPn5tBLX090fMcb3UR-20" value="&lt;font style=&quot;vertical-align: inherit;&quot;&gt;&lt;font style=&quot;vertical-align: inherit;&quot;&gt;n khong phai la so chan&lt;/font&gt;&lt;/font&gt;" style="text;html=1;align=center;verticalAlign=middle;whiteSpace=wrap;rounded=0;" vertex="1" parent="1">
          <mxGeometry x="570" y="385" width="100" height="30" as="geometry" />
        </mxCell>
        <mxCell id="noxPn5tBLX090fMcb3UR-23" value="&lt;font style=&quot;vertical-align: inherit;&quot;&gt;&lt;font style=&quot;vertical-align: inherit;&quot;&gt;end&lt;/font&gt;&lt;/font&gt;" style="text;html=1;align=center;verticalAlign=middle;whiteSpace=wrap;rounded=0;" vertex="1" parent="1">
          <mxGeometry x="590" y="515" width="60" height="30" as="geometry" />
        </mxCell>
      </root>
    </mxGraphModel>
  </diagram>
</mxfile>
